<svg width="1440" height="86" viewBox="0 0 1440 86" fill="none" xmlns="http://www.w3.org/2000/svg">
<rect width="1442" height="86" fill="#072336"/>
<path d="M543.662 48.196C542.495 48.196 541.567 47.86 540.876 47.188C540.185 46.5067 539.84 45.5173 539.84 44.22V41.98C539.84 40.6827 540.185 39.698 540.876 39.026C541.567 38.3447 542.495 38.004 543.662 38.004C544.819 38.004 545.706 38.326 546.322 38.97C546.947 39.614 547.26 40.496 547.26 41.616V41.686H546.098V41.574C546.098 40.8367 545.897 40.2347 545.496 39.768C545.104 39.292 544.493 39.054 543.662 39.054C542.831 39.054 542.183 39.3107 541.716 39.824C541.249 40.328 541.016 41.0373 541.016 41.952V44.248C541.016 45.1627 541.249 45.8767 541.716 46.39C542.183 46.894 542.831 47.146 543.662 47.146C544.493 47.146 545.104 46.9127 545.496 46.446C545.897 45.97 546.098 45.3633 546.098 44.626V44.402H547.26V44.584C547.26 45.704 546.947 46.586 546.322 47.23C545.706 47.874 544.819 48.196 543.662 48.196ZM552.308 48.196C551.618 48.196 551.006 48.0513 550.474 47.762C549.952 47.4727 549.541 47.0667 549.242 46.544C548.953 46.012 548.808 45.3867 548.808 44.668V44.486C548.808 43.7767 548.953 43.156 549.242 42.624C549.541 42.092 549.952 41.6813 550.474 41.392C551.006 41.1027 551.618 40.958 552.308 40.958C552.999 40.958 553.606 41.1027 554.128 41.392C554.66 41.6813 555.071 42.092 555.36 42.624C555.659 43.156 555.808 43.7767 555.808 44.486V44.668C555.808 45.3867 555.659 46.012 555.36 46.544C555.071 47.0667 554.66 47.4727 554.128 47.762C553.606 48.0513 552.999 48.196 552.308 48.196ZM552.308 47.202C553.036 47.202 553.615 46.9733 554.044 46.516C554.483 46.0493 554.702 45.424 554.702 44.64V44.514C554.702 43.73 554.483 43.1093 554.044 42.652C553.615 42.1853 553.036 41.952 552.308 41.952C551.59 41.952 551.011 42.1853 550.572 42.652C550.134 43.1093 549.914 43.73 549.914 44.514V44.64C549.914 45.424 550.134 46.0493 550.572 46.516C551.011 46.9733 551.59 47.202 552.308 47.202ZM557.799 50.8V41.154H558.877V42.288H559.073C559.25 41.9427 559.535 41.6347 559.927 41.364C560.328 41.0933 560.883 40.958 561.593 40.958C562.181 40.958 562.717 41.1027 563.203 41.392C563.697 41.672 564.089 42.0733 564.379 42.596C564.677 43.1187 564.827 43.7487 564.827 44.486V44.668C564.827 45.396 564.682 46.026 564.393 46.558C564.103 47.09 563.711 47.496 563.217 47.776C562.731 48.056 562.19 48.196 561.593 48.196C561.117 48.196 560.711 48.1307 560.375 48C560.048 47.8787 559.782 47.72 559.577 47.524C559.371 47.328 559.213 47.1273 559.101 46.922H558.905V50.8H557.799ZM561.299 47.216C562.008 47.216 562.582 46.992 563.021 46.544C563.469 46.0867 563.693 45.452 563.693 44.64V44.514C563.693 43.702 563.469 43.072 563.021 42.624C562.582 42.1667 562.008 41.938 561.299 41.938C560.599 41.938 560.02 42.1667 559.563 42.624C559.115 43.072 558.891 43.702 558.891 44.514V44.64C558.891 45.452 559.115 46.0867 559.563 46.544C560.02 46.992 560.599 47.216 561.299 47.216ZM567.634 50.8V49.82H571.554C571.825 49.82 571.96 49.68 571.96 49.4V46.908H571.764C571.671 47.104 571.526 47.3 571.33 47.496C571.144 47.6827 570.896 47.8367 570.588 47.958C570.28 48.07 569.893 48.126 569.426 48.126C568.932 48.126 568.474 48.0187 568.054 47.804C567.644 47.5893 567.317 47.272 567.074 46.852C566.841 46.432 566.724 45.9187 566.724 45.312V41.154H567.83V45.228C567.83 45.9 567.998 46.39 568.334 46.698C568.68 47.006 569.142 47.16 569.72 47.16C570.374 47.16 570.91 46.9453 571.33 46.516C571.75 46.0867 571.96 45.4473 571.96 44.598V41.154H573.066V49.596C573.066 49.9693 572.959 50.2633 572.744 50.478C572.539 50.6927 572.236 50.8 571.834 50.8H567.634ZM575.381 48V41.154H576.459V41.994H576.655C576.776 41.6953 576.963 41.476 577.215 41.336C577.467 41.196 577.798 41.126 578.209 41.126H579.021V42.134H578.139C577.644 42.134 577.243 42.274 576.935 42.554C576.636 42.8247 576.487 43.2493 576.487 43.828V48H575.381ZM580.658 48V41.154H581.764V48H580.658ZM581.218 40.09C580.975 40.09 580.77 40.0107 580.602 39.852C580.443 39.6933 580.364 39.4927 580.364 39.25C580.364 38.998 580.443 38.7927 580.602 38.634C580.77 38.4753 580.975 38.396 581.218 38.396C581.461 38.396 581.661 38.4753 581.82 38.634C581.979 38.7927 582.058 38.998 582.058 39.25C582.058 39.4927 581.979 39.6933 581.82 39.852C581.661 40.0107 581.461 40.09 581.218 40.09ZM583.754 44.612V44.416C583.754 43.6973 583.898 43.0813 584.188 42.568C584.477 42.0547 584.869 41.658 585.364 41.378C585.858 41.098 586.4 40.958 586.988 40.958C587.706 40.958 588.257 41.098 588.64 41.378C589.032 41.6487 589.321 41.952 589.508 42.288H589.704V41.154H590.754V49.596C590.754 49.9693 590.651 50.2633 590.446 50.478C590.24 50.6927 589.942 50.8 589.55 50.8H584.902V49.82H589.256C589.536 49.82 589.676 49.68 589.676 49.4V46.796H589.48C589.368 47.0013 589.209 47.202 589.004 47.398C588.798 47.594 588.532 47.7573 588.206 47.888C587.879 48.0093 587.473 48.07 586.988 48.07C586.4 48.07 585.858 47.93 585.364 47.65C584.869 47.37 584.477 46.9733 584.188 46.46C583.898 45.9373 583.754 45.3213 583.754 44.612ZM587.282 47.09C587.991 47.09 588.565 46.866 589.004 46.418C589.452 45.97 589.676 45.354 589.676 44.57V44.458C589.676 43.6647 589.452 43.0487 589.004 42.61C588.565 42.162 587.991 41.938 587.282 41.938C586.582 41.938 586.003 42.162 585.546 42.61C585.098 43.0487 584.874 43.6647 584.874 44.458V44.57C584.874 45.354 585.098 45.97 585.546 46.418C586.003 46.866 586.582 47.09 587.282 47.09ZM593.072 48V38.2H594.178V42.246H594.374C594.467 42.0407 594.607 41.8493 594.794 41.672C594.99 41.4853 595.237 41.3313 595.536 41.21C595.844 41.0887 596.231 41.028 596.698 41.028C597.211 41.028 597.669 41.14 598.07 41.364C598.481 41.5787 598.807 41.896 599.05 42.316C599.293 42.7267 599.414 43.24 599.414 43.856V48H598.308V43.94C598.308 43.2587 598.135 42.764 597.79 42.456C597.454 42.148 596.997 41.994 596.418 41.994C595.755 41.994 595.214 42.2087 594.794 42.638C594.383 43.0673 594.178 43.7067 594.178 44.556V48H593.072ZM603.987 48C603.595 48 603.291 47.8927 603.077 47.678C602.871 47.4633 602.769 47.1693 602.769 46.796V42.12H600.711V41.154H602.769V38.718H603.875V41.154H606.115V42.12H603.875V46.628C603.875 46.908 604.01 47.048 604.281 47.048H605.807V48H603.987ZM615.184 48.168C614.381 48.168 613.677 48.014 613.07 47.706C612.473 47.3887 612.006 46.9127 611.67 46.278C611.343 45.6433 611.18 44.8407 611.18 43.87V42.33C611.18 41.3593 611.343 40.5567 611.67 39.922C612.006 39.2873 612.473 38.816 613.07 38.508C613.677 38.1907 614.381 38.032 615.184 38.032H615.366C616.178 38.032 616.883 38.1907 617.48 38.508C618.077 38.816 618.539 39.2873 618.866 39.922C619.193 40.5567 619.356 41.3593 619.356 42.33V43.87C619.356 44.8407 619.193 45.6433 618.866 46.278C618.539 46.9127 618.077 47.3887 617.48 47.706C616.883 48.014 616.178 48.168 615.366 48.168H615.184ZM615.212 47.258H615.352C616.304 47.258 617.046 46.9873 617.578 46.446C618.119 45.8953 618.39 45.0367 618.39 43.87V42.33C618.39 41.1633 618.119 40.3093 617.578 39.768C617.046 39.2173 616.304 38.942 615.352 38.942H615.212C614.251 38.942 613.499 39.2173 612.958 39.768C612.426 40.3093 612.16 41.1633 612.16 42.33V43.87C612.16 45.0367 612.426 45.8953 612.958 46.446C613.499 46.9873 614.251 47.258 615.212 47.258ZM615.352 46.138C614.717 46.138 614.213 45.9513 613.84 45.578C613.476 45.2047 613.294 44.654 613.294 43.926V42.302C613.294 41.5553 613.481 40.9907 613.854 40.608C614.237 40.2253 614.727 40.034 615.324 40.034C615.968 40.034 616.458 40.2253 616.794 40.608C617.13 40.9813 617.298 41.4667 617.298 42.064V42.33H616.332V41.98C616.332 41.6813 616.257 41.4293 616.108 41.224C615.959 41.0187 615.702 40.916 615.338 40.916C615.03 40.916 614.773 41.0187 614.568 41.224C614.363 41.42 614.26 41.7093 614.26 42.092V44.136C614.26 44.5 614.367 44.7753 614.582 44.962C614.797 45.1487 615.049 45.242 615.338 45.242C615.655 45.242 615.898 45.1533 616.066 44.976C616.243 44.7987 616.332 44.5233 616.332 44.15V43.856H617.298V44.122C617.298 44.7193 617.135 45.2047 616.808 45.578C616.481 45.9513 615.996 46.138 615.352 46.138ZM624.535 48V46.978C624.535 46.278 624.656 45.718 624.899 45.298C625.151 44.878 625.496 44.542 625.935 44.29C626.383 44.0287 626.915 43.8047 627.531 43.618L628.301 43.38C628.721 43.2493 629.09 43.0907 629.407 42.904C629.724 42.708 629.972 42.4653 630.149 42.176C630.326 41.8773 630.415 41.5133 630.415 41.084V41.028C630.415 40.412 630.2 39.9267 629.771 39.572C629.342 39.208 628.791 39.026 628.119 39.026C627.41 39.026 626.831 39.2173 626.383 39.6C625.935 39.9733 625.711 40.5427 625.711 41.308V41.504H624.591V41.322C624.591 40.6127 624.745 40.0107 625.053 39.516C625.361 39.0213 625.781 38.648 626.313 38.396C626.845 38.1347 627.447 38.004 628.119 38.004C628.791 38.004 629.384 38.13 629.897 38.382C630.42 38.634 630.826 38.984 631.115 39.432C631.404 39.88 631.549 40.4027 631.549 41V41.126C631.549 41.7607 631.423 42.288 631.171 42.708C630.919 43.1187 630.569 43.4547 630.121 43.716C629.682 43.9773 629.164 44.2013 628.567 44.388L627.811 44.626C627.335 44.7753 626.938 44.934 626.621 45.102C626.313 45.2607 626.08 45.466 625.921 45.718C625.762 45.97 625.683 46.3107 625.683 46.74V46.978H631.465V48H624.535ZM636.709 48.196C635.598 48.196 634.711 47.8693 634.049 47.216C633.395 46.5533 633.069 45.564 633.069 44.248V41.952C633.069 40.6453 633.395 39.6607 634.049 38.998C634.711 38.3353 635.598 38.004 636.709 38.004C637.829 38.004 638.715 38.3353 639.369 38.998C640.031 39.6607 640.363 40.6453 640.363 41.952V44.248C640.363 45.564 640.031 46.5533 639.369 47.216C638.715 47.8693 637.829 48.196 636.709 48.196ZM636.709 47.174C637.549 47.174 638.179 46.922 638.599 46.418C639.019 45.914 639.229 45.2093 639.229 44.304V41.882C639.229 40.9767 639.014 40.2767 638.585 39.782C638.155 39.278 637.53 39.026 636.709 39.026C635.887 39.026 635.262 39.278 634.833 39.782C634.413 40.286 634.203 40.986 634.203 41.882V44.304C634.203 45.2187 634.413 45.928 634.833 46.432C635.253 46.9267 635.878 47.174 636.709 47.174ZM641.939 48V46.978C641.939 46.278 642.061 45.718 642.303 45.298C642.555 44.878 642.901 44.542 643.339 44.29C643.787 44.0287 644.319 43.8047 644.935 43.618L645.705 43.38C646.125 43.2493 646.494 43.0907 646.811 42.904C647.129 42.708 647.376 42.4653 647.553 42.176C647.731 41.8773 647.819 41.5133 647.819 41.084V41.028C647.819 40.412 647.605 39.9267 647.175 39.572C646.746 39.208 646.195 39.026 645.523 39.026C644.814 39.026 644.235 39.2173 643.787 39.6C643.339 39.9733 643.115 40.5427 643.115 41.308V41.504H641.995V41.322C641.995 40.6127 642.149 40.0107 642.457 39.516C642.765 39.0213 643.185 38.648 643.717 38.396C644.249 38.1347 644.851 38.004 645.523 38.004C646.195 38.004 646.788 38.13 647.301 38.382C647.824 38.634 648.23 38.984 648.519 39.432C648.809 39.88 648.953 40.4027 648.953 41V41.126C648.953 41.7607 648.827 42.288 648.575 42.708C648.323 43.1187 647.973 43.4547 647.525 43.716C647.087 43.9773 646.569 44.2013 645.971 44.388L645.215 44.626C644.739 44.7753 644.343 44.934 644.025 45.102C643.717 45.2607 643.484 45.466 643.325 45.718C643.167 45.97 643.087 46.3107 643.087 46.74V46.978H648.869V48H641.939ZM650.375 48V46.978C650.375 46.278 650.496 45.718 650.739 45.298C650.991 44.878 651.336 44.542 651.775 44.29C652.223 44.0287 652.755 43.8047 653.371 43.618L654.141 43.38C654.561 43.2493 654.929 43.0907 655.247 42.904C655.564 42.708 655.811 42.4653 655.989 42.176C656.166 41.8773 656.255 41.5133 656.255 41.084V41.028C656.255 40.412 656.04 39.9267 655.611 39.572C655.181 39.208 654.631 39.026 653.959 39.026C653.249 39.026 652.671 39.2173 652.223 39.6C651.775 39.9733 651.551 40.5427 651.551 41.308V41.504H650.431V41.322C650.431 40.6127 650.585 40.0107 650.893 39.516C651.201 39.0213 651.621 38.648 652.153 38.396C652.685 38.1347 653.287 38.004 653.959 38.004C654.631 38.004 655.223 38.13 655.737 38.382C656.259 38.634 656.665 38.984 656.955 39.432C657.244 39.88 657.389 40.4027 657.389 41V41.126C657.389 41.7607 657.263 42.288 657.011 42.708C656.759 43.1187 656.409 43.4547 655.961 43.716C655.522 43.9773 655.004 44.2013 654.407 44.388L653.651 44.626C653.175 44.7753 652.778 44.934 652.461 45.102C652.153 45.2607 651.919 45.466 651.761 45.718C651.602 45.97 651.523 46.3107 651.523 46.74V46.978H657.305V48H650.375ZM659.832 48.196C659.562 48.196 659.333 48.1073 659.146 47.93C658.969 47.7527 658.88 47.524 658.88 47.244C658.88 46.964 658.969 46.7353 659.146 46.558C659.333 46.3807 659.562 46.292 659.832 46.292C660.112 46.292 660.341 46.3807 660.518 46.558C660.696 46.7353 660.784 46.964 660.784 47.244C660.784 47.524 660.696 47.7527 660.518 47.93C660.341 48.1073 660.112 48.196 659.832 48.196ZM665.398 48V46.95H666.77V39.25H665.398V38.2H669.22C670.508 38.2 671.502 38.5267 672.202 39.18C672.912 39.8333 673.266 40.8367 673.266 42.19V44.01C673.266 45.3727 672.912 46.3807 672.202 47.034C671.502 47.678 670.508 48 669.22 48H665.398ZM667.946 46.936H669.22C670.172 46.936 670.891 46.7027 671.376 46.236C671.862 45.7693 672.104 45.046 672.104 44.066V42.148C672.104 41.1493 671.862 40.4213 671.376 39.964C670.891 39.5067 670.172 39.278 669.22 39.278H667.946V46.936ZM677.285 48.196C676.809 48.196 676.375 48.112 675.983 47.944C675.591 47.776 675.283 47.5333 675.059 47.216C674.835 46.8987 674.723 46.5113 674.723 46.054C674.723 45.5873 674.835 45.2047 675.059 44.906C675.283 44.598 675.591 44.3693 675.983 44.22C676.375 44.0613 676.814 43.982 677.299 43.982H679.609V43.478C679.609 42.9927 679.465 42.61 679.175 42.33C678.895 42.05 678.475 41.91 677.915 41.91C677.365 41.91 676.935 42.0453 676.627 42.316C676.319 42.5773 676.109 42.932 675.997 43.38L674.961 43.044C675.073 42.6613 675.251 42.316 675.493 42.008C675.736 41.6907 676.058 41.4387 676.459 41.252C676.87 41.056 677.36 40.958 677.929 40.958C678.807 40.958 679.488 41.1867 679.973 41.644C680.459 42.092 680.701 42.7267 680.701 43.548V46.642C680.701 46.922 680.832 47.062 681.093 47.062H681.723V48H680.757C680.449 48 680.202 47.916 680.015 47.748C679.829 47.5707 679.735 47.3373 679.735 47.048V46.978H679.567C679.465 47.1553 679.325 47.342 679.147 47.538C678.979 47.7247 678.746 47.8787 678.447 48C678.149 48.1307 677.761 48.196 677.285 48.196ZM677.411 47.244C678.065 47.244 678.592 47.0527 678.993 46.67C679.404 46.278 679.609 45.732 679.609 45.032V44.878H677.341C676.903 44.878 676.539 44.976 676.249 45.172C675.969 45.3587 675.829 45.6433 675.829 46.026C675.829 46.4087 675.974 46.7073 676.263 46.922C676.562 47.1367 676.945 47.244 677.411 47.244ZM683.238 50.8V41.154H684.316V42.288H684.512C684.69 41.9427 684.974 41.6347 685.366 41.364C685.768 41.0933 686.323 40.958 687.032 40.958C687.62 40.958 688.157 41.1027 688.642 41.392C689.137 41.672 689.529 42.0733 689.818 42.596C690.117 43.1187 690.266 43.7487 690.266 44.486V44.668C690.266 45.396 690.122 46.026 689.832 46.558C689.543 47.09 689.151 47.496 688.656 47.776C688.171 48.056 687.63 48.196 687.032 48.196C686.556 48.196 686.15 48.1307 685.814 48C685.488 47.8787 685.222 47.72 685.016 47.524C684.811 47.328 684.652 47.1273 684.54 46.922H684.344V50.8H683.238ZM686.738 47.216C687.448 47.216 688.022 46.992 688.46 46.544C688.908 46.0867 689.132 45.452 689.132 44.64V44.514C689.132 43.702 688.908 43.072 688.46 42.624C688.022 42.1667 687.448 41.938 686.738 41.938C686.038 41.938 685.46 42.1667 685.002 42.624C684.554 43.072 684.33 43.702 684.33 44.514V44.64C684.33 45.452 684.554 46.0867 685.002 46.544C685.46 46.992 686.038 47.216 686.738 47.216ZM692.248 50.8V41.154H693.326V42.288H693.522C693.699 41.9427 693.984 41.6347 694.376 41.364C694.777 41.0933 695.333 40.958 696.042 40.958C696.63 40.958 697.167 41.1027 697.652 41.392C698.147 41.672 698.539 42.0733 698.828 42.596C699.127 43.1187 699.276 43.7487 699.276 44.486V44.668C699.276 45.396 699.131 46.026 698.842 46.558C698.553 47.09 698.161 47.496 697.666 47.776C697.181 48.056 696.639 48.196 696.042 48.196C695.566 48.196 695.16 48.1307 694.824 48C694.497 47.8787 694.231 47.72 694.026 47.524C693.821 47.328 693.662 47.1273 693.55 46.922H693.354V50.8H692.248ZM695.748 47.216C696.457 47.216 697.031 46.992 697.47 46.544C697.918 46.0867 698.142 45.452 698.142 44.64V44.514C698.142 43.702 697.918 43.072 697.47 42.624C697.031 42.1667 696.457 41.938 695.748 41.938C695.048 41.938 694.469 42.1667 694.012 42.624C693.564 43.072 693.34 43.702 693.34 44.514V44.64C693.34 45.452 693.564 46.0867 694.012 46.544C694.469 46.992 695.048 47.216 695.748 47.216ZM708.353 48.196C707.625 48.196 706.991 48.0653 706.449 47.804C705.908 47.5427 705.488 47.1553 705.189 46.642C704.891 46.1193 704.741 45.48 704.741 44.724V38.2H705.903V44.738C705.903 45.5407 706.118 46.1427 706.547 46.544C706.977 46.9453 707.579 47.146 708.353 47.146C709.128 47.146 709.73 46.9453 710.159 46.544C710.589 46.1427 710.803 45.5407 710.803 44.738V38.2H711.979V44.724C711.979 45.48 711.83 46.1193 711.531 46.642C711.233 47.1553 710.808 47.5427 710.257 47.804C709.716 48.0653 709.081 48.196 708.353 48.196ZM714.178 48V41.154H715.256V42.316H715.452C715.601 41.9893 715.853 41.6953 716.208 41.434C716.572 41.1633 717.104 41.028 717.804 41.028C718.317 41.028 718.774 41.1353 719.176 41.35C719.586 41.5647 719.913 41.882 720.156 42.302C720.398 42.722 720.52 43.24 720.52 43.856V48H719.414V43.94C719.414 43.2587 719.241 42.764 718.896 42.456C718.56 42.148 718.102 41.994 717.524 41.994C716.861 41.994 716.32 42.2087 715.9 42.638C715.489 43.0673 715.284 43.7067 715.284 44.556V48H714.178ZM722.764 48V41.154H723.87V48H722.764ZM723.324 40.09C723.081 40.09 722.876 40.0107 722.708 39.852C722.549 39.6933 722.47 39.4927 722.47 39.25C722.47 38.998 722.549 38.7927 722.708 38.634C722.876 38.4753 723.081 38.396 723.324 38.396C723.566 38.396 723.767 38.4753 723.926 38.634C724.084 38.7927 724.164 38.998 724.164 39.25C724.164 39.4927 724.084 39.6933 723.926 39.852C723.767 40.0107 723.566 40.09 723.324 40.09ZM727.931 48L725.481 41.154H726.657L728.715 47.174H728.911L730.969 41.154H732.145L729.695 48H727.931ZM736.591 48.196C735.9 48.196 735.294 48.0513 734.771 47.762C734.248 47.4633 733.842 47.048 733.553 46.516C733.264 45.984 733.119 45.368 733.119 44.668V44.5C733.119 43.7907 733.264 43.17 733.553 42.638C733.842 42.106 734.244 41.6953 734.757 41.406C735.27 41.1073 735.858 40.958 736.521 40.958C737.165 40.958 737.734 41.098 738.229 41.378C738.724 41.6487 739.111 42.0407 739.391 42.554C739.671 43.0673 739.811 43.6693 739.811 44.36V44.864H734.225C734.253 45.6013 734.491 46.18 734.939 46.6C735.387 47.0107 735.947 47.216 736.619 47.216C737.207 47.216 737.66 47.0807 737.977 46.81C738.294 46.5393 738.537 46.2173 738.705 45.844L739.657 46.306C739.517 46.5953 739.321 46.8847 739.069 47.174C738.826 47.4633 738.504 47.706 738.103 47.902C737.711 48.098 737.207 48.196 736.591 48.196ZM734.239 43.954H738.691C738.654 43.3193 738.434 42.8247 738.033 42.47C737.641 42.1153 737.137 41.938 736.521 41.938C735.896 41.938 735.382 42.1153 734.981 42.47C734.58 42.8247 734.332 43.3193 734.239 43.954ZM741.74 48V41.154H742.818V41.994H743.014C743.135 41.6953 743.322 41.476 743.574 41.336C743.826 41.196 744.157 41.126 744.568 41.126H745.38V42.134H744.498C744.003 42.134 743.602 42.274 743.294 42.554C742.995 42.8247 742.846 43.2493 742.846 43.828V48H741.74ZM749.639 48.196C748.789 48.196 748.071 48 747.483 47.608C746.904 47.216 746.554 46.5953 746.433 45.746L747.483 45.508C747.557 45.956 747.697 46.3107 747.903 46.572C748.108 46.824 748.36 47.006 748.659 47.118C748.967 47.2207 749.293 47.272 749.639 47.272C750.152 47.272 750.558 47.1693 750.857 46.964C751.155 46.7587 751.305 46.4833 751.305 46.138C751.305 45.7833 751.16 45.536 750.871 45.396C750.591 45.2467 750.203 45.1253 749.709 45.032L749.135 44.934C748.696 44.8593 748.295 44.7427 747.931 44.584C747.567 44.4253 747.277 44.2107 747.063 43.94C746.848 43.6693 746.741 43.3287 746.741 42.918C746.741 42.302 746.979 41.8213 747.455 41.476C747.931 41.1307 748.561 40.958 749.345 40.958C750.119 40.958 750.745 41.1353 751.221 41.49C751.706 41.8353 752.019 42.3253 752.159 42.96L751.123 43.226C751.039 42.7313 750.838 42.386 750.521 42.19C750.203 41.9847 749.811 41.882 749.345 41.882C748.878 41.882 748.509 41.9707 748.239 42.148C747.968 42.316 747.833 42.568 747.833 42.904C747.833 43.2307 747.959 43.4733 748.211 43.632C748.472 43.7813 748.817 43.8933 749.247 43.968L749.821 44.066C750.306 44.15 750.74 44.2667 751.123 44.416C751.515 44.556 751.823 44.7613 752.047 45.032C752.28 45.3027 752.397 45.6573 752.397 46.096C752.397 46.768 752.145 47.286 751.641 47.65C751.146 48.014 750.479 48.196 749.639 48.196ZM754.264 48V41.154H755.37V48H754.264ZM754.824 40.09C754.581 40.09 754.376 40.0107 754.208 39.852C754.049 39.6933 753.97 39.4927 753.97 39.25C753.97 38.998 754.049 38.7927 754.208 38.634C754.376 38.4753 754.581 38.396 754.824 38.396C755.066 38.396 755.267 38.4753 755.426 38.634C755.584 38.7927 755.664 38.998 755.664 39.25C755.664 39.4927 755.584 39.6933 755.426 39.852C755.267 40.0107 755.066 40.09 754.824 40.09ZM760.215 48C759.823 48 759.52 47.8927 759.305 47.678C759.1 47.4633 758.997 47.1693 758.997 46.796V42.12H756.939V41.154H758.997V38.718H760.103V41.154H762.343V42.12H760.103V46.628C760.103 46.908 760.239 47.048 760.509 47.048H762.035V48H760.215ZM764.961 50.8V49.82H768.881C769.151 49.82 769.287 49.68 769.287 49.4V46.908H769.091C768.997 47.104 768.853 47.3 768.657 47.496C768.47 47.6827 768.223 47.8367 767.915 47.958C767.607 48.07 767.219 48.126 766.753 48.126C766.258 48.126 765.801 48.0187 765.381 47.804C764.97 47.5893 764.643 47.272 764.401 46.852C764.167 46.432 764.051 45.9187 764.051 45.312V41.154H765.157V45.228C765.157 45.9 765.325 46.39 765.661 46.698C766.006 47.006 766.468 47.16 767.047 47.16C767.7 47.16 768.237 46.9453 768.657 46.516C769.077 46.0867 769.287 45.4473 769.287 44.598V41.154H770.393V49.596C770.393 49.9693 770.285 50.2633 770.071 50.478C769.865 50.6927 769.562 50.8 769.161 50.8H764.961ZM773.309 48.196C773.038 48.196 772.81 48.1073 772.623 47.93C772.446 47.7527 772.357 47.524 772.357 47.244C772.357 46.964 772.446 46.7353 772.623 46.558C772.81 46.3807 773.038 46.292 773.309 46.292C773.589 46.292 773.818 46.3807 773.995 46.558C774.172 46.7353 774.261 46.964 774.261 47.244C774.261 47.524 774.172 47.7527 773.995 47.93C773.818 48.1073 773.589 48.196 773.309 48.196ZM778.389 48L781.413 38.2H783.485L786.509 48H785.291L784.535 45.522H780.363L779.607 48H778.389ZM780.657 44.458H784.227L782.547 38.914H782.351L780.657 44.458ZM788.019 48V38.2H789.125V48H788.019ZM791.451 48V38.2H792.557V48H791.451ZM798.478 48V41.154H799.556V41.994H799.752C799.874 41.6953 800.06 41.476 800.312 41.336C800.564 41.196 800.896 41.126 801.306 41.126H802.118V42.134H801.236C800.742 42.134 800.34 42.274 800.032 42.554C799.734 42.8247 799.584 43.2493 799.584 43.828V48H798.478ZM803.756 48V41.154H804.862V48H803.756ZM804.316 40.09C804.073 40.09 803.868 40.0107 803.7 39.852C803.541 39.6933 803.462 39.4927 803.462 39.25C803.462 38.998 803.541 38.7927 803.7 38.634C803.868 38.4753 804.073 38.396 804.316 38.396C804.558 38.396 804.759 38.4753 804.918 38.634C805.076 38.7927 805.156 38.998 805.156 39.25C805.156 39.4927 805.076 39.6933 804.918 39.852C804.759 40.0107 804.558 40.09 804.316 40.09ZM806.851 44.612V44.416C806.851 43.6973 806.996 43.0813 807.285 42.568C807.575 42.0547 807.967 41.658 808.461 41.378C808.956 41.098 809.497 40.958 810.085 40.958C810.804 40.958 811.355 41.098 811.737 41.378C812.129 41.6487 812.419 41.952 812.605 42.288H812.801V41.154H813.851V49.596C813.851 49.9693 813.749 50.2633 813.543 50.478C813.338 50.6927 813.039 50.8 812.647 50.8H807.999V49.82H812.353C812.633 49.82 812.773 49.68 812.773 49.4V46.796H812.577C812.465 47.0013 812.307 47.202 812.101 47.398C811.896 47.594 811.63 47.7573 811.303 47.888C810.977 48.0093 810.571 48.07 810.085 48.07C809.497 48.07 808.956 47.93 808.461 47.65C807.967 47.37 807.575 46.9733 807.285 46.46C806.996 45.9373 806.851 45.3213 806.851 44.612ZM810.379 47.09C811.089 47.09 811.663 46.866 812.101 46.418C812.549 45.97 812.773 45.354 812.773 44.57V44.458C812.773 43.6647 812.549 43.0487 812.101 42.61C811.663 42.162 811.089 41.938 810.379 41.938C809.679 41.938 809.101 42.162 808.643 42.61C808.195 43.0487 807.971 43.6647 807.971 44.458V44.57C807.971 45.354 808.195 45.97 808.643 46.418C809.101 46.866 809.679 47.09 810.379 47.09ZM816.17 48V38.2H817.276V42.246H817.472C817.565 42.0407 817.705 41.8493 817.892 41.672C818.088 41.4853 818.335 41.3313 818.634 41.21C818.942 41.0887 819.329 41.028 819.796 41.028C820.309 41.028 820.766 41.14 821.168 41.364C821.578 41.5787 821.905 41.896 822.148 42.316C822.39 42.7267 822.512 43.24 822.512 43.856V48H821.406V43.94C821.406 43.2587 821.233 42.764 820.888 42.456C820.552 42.148 820.094 41.994 819.516 41.994C818.853 41.994 818.312 42.2087 817.892 42.638C817.481 43.0673 817.276 43.7067 817.276 44.556V48H816.17ZM827.084 48C826.692 48 826.389 47.8927 826.174 47.678C825.969 47.4633 825.866 47.1693 825.866 46.796V42.12H823.808V41.154H825.866V38.718H826.972V41.154H829.212V42.12H826.972V46.628C826.972 46.908 827.108 47.048 827.378 47.048H828.904V48H827.084ZM833.762 48.196C832.912 48.196 832.194 48 831.606 47.608C831.027 47.216 830.677 46.5953 830.556 45.746L831.606 45.508C831.68 45.956 831.82 46.3107 832.026 46.572C832.231 46.824 832.483 47.006 832.782 47.118C833.09 47.2207 833.416 47.272 833.762 47.272C834.275 47.272 834.681 47.1693 834.98 46.964C835.278 46.7587 835.428 46.4833 835.428 46.138C835.428 45.7833 835.283 45.536 834.994 45.396C834.714 45.2467 834.326 45.1253 833.832 45.032L833.258 44.934C832.819 44.8593 832.418 44.7427 832.054 44.584C831.69 44.4253 831.4 44.2107 831.186 43.94C830.971 43.6693 830.864 43.3287 830.864 42.918C830.864 42.302 831.102 41.8213 831.578 41.476C832.054 41.1307 832.684 40.958 833.468 40.958C834.242 40.958 834.868 41.1353 835.344 41.49C835.829 41.8353 836.142 42.3253 836.282 42.96L835.246 43.226C835.162 42.7313 834.961 42.386 834.644 42.19C834.326 41.9847 833.934 41.882 833.468 41.882C833.001 41.882 832.632 41.9707 832.362 42.148C832.091 42.316 831.956 42.568 831.956 42.904C831.956 43.2307 832.082 43.4733 832.334 43.632C832.595 43.7813 832.94 43.8933 833.37 43.968L833.944 44.066C834.429 44.15 834.863 44.2667 835.246 44.416C835.638 44.556 835.946 44.7613 836.17 45.032C836.403 45.3027 836.52 45.6573 836.52 46.096C836.52 46.768 836.268 47.286 835.764 47.65C835.269 48.014 834.602 48.196 833.762 48.196ZM841.982 48V41.154H843.06V41.994H843.256C843.378 41.6953 843.564 41.476 843.816 41.336C844.068 41.196 844.4 41.126 844.81 41.126H845.622V42.134H844.74C844.246 42.134 843.844 42.274 843.536 42.554C843.238 42.8247 843.088 43.2493 843.088 43.828V48H841.982ZM850.15 48.196C849.459 48.196 848.852 48.0513 848.33 47.762C847.807 47.4633 847.401 47.048 847.112 46.516C846.822 45.984 846.678 45.368 846.678 44.668V44.5C846.678 43.7907 846.822 43.17 847.112 42.638C847.401 42.106 847.802 41.6953 848.316 41.406C848.829 41.1073 849.417 40.958 850.08 40.958C850.724 40.958 851.293 41.098 851.788 41.378C852.282 41.6487 852.67 42.0407 852.95 42.554C853.23 43.0673 853.37 43.6693 853.37 44.36V44.864H847.784C847.812 45.6013 848.05 46.18 848.498 46.6C848.946 47.0107 849.506 47.216 850.178 47.216C850.766 47.216 851.218 47.0807 851.536 46.81C851.853 46.5393 852.096 46.2173 852.264 45.844L853.216 46.306C853.076 46.5953 852.88 46.8847 852.628 47.174C852.385 47.4633 852.063 47.706 851.662 47.902C851.27 48.098 850.766 48.196 850.15 48.196ZM847.798 43.954H852.25C852.212 43.3193 851.993 42.8247 851.592 42.47C851.2 42.1153 850.696 41.938 850.08 41.938C849.454 41.938 848.941 42.1153 848.54 42.47C848.138 42.8247 847.891 43.3193 847.798 43.954ZM858.057 48.196C857.207 48.196 856.489 48 855.901 47.608C855.322 47.216 854.972 46.5953 854.851 45.746L855.901 45.508C855.975 45.956 856.115 46.3107 856.321 46.572C856.526 46.824 856.778 47.006 857.077 47.118C857.385 47.2207 857.711 47.272 858.057 47.272C858.57 47.272 858.976 47.1693 859.275 46.964C859.573 46.7587 859.723 46.4833 859.723 46.138C859.723 45.7833 859.578 45.536 859.289 45.396C859.009 45.2467 858.621 45.1253 858.127 45.032L857.553 44.934C857.114 44.8593 856.713 44.7427 856.349 44.584C855.985 44.4253 855.695 44.2107 855.481 43.94C855.266 43.6693 855.159 43.3287 855.159 42.918C855.159 42.302 855.397 41.8213 855.873 41.476C856.349 41.1307 856.979 40.958 857.763 40.958C858.537 40.958 859.163 41.1353 859.639 41.49C860.124 41.8353 860.437 42.3253 860.577 42.96L859.541 43.226C859.457 42.7313 859.256 42.386 858.939 42.19C858.621 41.9847 858.229 41.882 857.763 41.882C857.296 41.882 856.927 41.9707 856.657 42.148C856.386 42.316 856.251 42.568 856.251 42.904C856.251 43.2307 856.377 43.4733 856.629 43.632C856.89 43.7813 857.235 43.8933 857.665 43.968L858.239 44.066C858.724 44.15 859.158 44.2667 859.541 44.416C859.933 44.556 860.241 44.7613 860.465 45.032C860.698 45.3027 860.815 45.6573 860.815 46.096C860.815 46.768 860.563 47.286 860.059 47.65C859.564 48.014 858.897 48.196 858.057 48.196ZM865.818 48.196C865.127 48.196 864.52 48.0513 863.998 47.762C863.475 47.4633 863.069 47.048 862.78 46.516C862.49 45.984 862.346 45.368 862.346 44.668V44.5C862.346 43.7907 862.49 43.17 862.78 42.638C863.069 42.106 863.47 41.6953 863.984 41.406C864.497 41.1073 865.085 40.958 865.748 40.958C866.392 40.958 866.961 41.098 867.456 41.378C867.95 41.6487 868.338 42.0407 868.618 42.554C868.898 43.0673 869.038 43.6693 869.038 44.36V44.864H863.452C863.48 45.6013 863.718 46.18 864.166 46.6C864.614 47.0107 865.174 47.216 865.846 47.216C866.434 47.216 866.886 47.0807 867.204 46.81C867.521 46.5393 867.764 46.2173 867.932 45.844L868.884 46.306C868.744 46.5953 868.548 46.8847 868.296 47.174C868.053 47.4633 867.731 47.706 867.33 47.902C866.938 48.098 866.434 48.196 865.818 48.196ZM863.466 43.954H867.918C867.88 43.3193 867.661 42.8247 867.26 42.47C866.868 42.1153 866.364 41.938 865.748 41.938C865.122 41.938 864.609 42.1153 864.208 42.47C863.806 42.8247 863.559 43.3193 863.466 43.954ZM870.967 48V41.154H872.045V41.994H872.241C872.362 41.6953 872.549 41.476 872.801 41.336C873.053 41.196 873.384 41.126 873.795 41.126H874.607V42.134H873.725C873.23 42.134 872.829 42.274 872.521 42.554C872.222 42.8247 872.073 43.2493 872.073 43.828V48H870.967ZM877.98 48L875.53 41.154H876.706L878.764 47.174H878.96L881.018 41.154H882.194L879.744 48H877.98ZM886.64 48.196C885.949 48.196 885.342 48.0513 884.82 47.762C884.297 47.4633 883.891 47.048 883.602 46.516C883.312 45.984 883.168 45.368 883.168 44.668V44.5C883.168 43.7907 883.312 43.17 883.602 42.638C883.891 42.106 884.292 41.6953 884.806 41.406C885.319 41.1073 885.907 40.958 886.57 40.958C887.214 40.958 887.783 41.098 888.278 41.378C888.772 41.6487 889.16 42.0407 889.44 42.554C889.72 43.0673 889.86 43.6693 889.86 44.36V44.864H884.274C884.302 45.6013 884.54 46.18 884.988 46.6C885.436 47.0107 885.996 47.216 886.668 47.216C887.256 47.216 887.708 47.0807 888.026 46.81C888.343 46.5393 888.586 46.2173 888.754 45.844L889.706 46.306C889.566 46.5953 889.37 46.8847 889.118 47.174C888.875 47.4633 888.553 47.706 888.152 47.902C887.76 48.098 887.256 48.196 886.64 48.196ZM884.288 43.954H888.74C888.702 43.3193 888.483 42.8247 888.082 42.47C887.69 42.1153 887.186 41.938 886.57 41.938C885.944 41.938 885.431 42.1153 885.03 42.47C884.628 42.8247 884.381 43.3193 884.288 43.954ZM894.687 48.196C894.099 48.196 893.558 48.056 893.063 47.776C892.568 47.496 892.176 47.09 891.887 46.558C891.598 46.026 891.453 45.396 891.453 44.668V44.486C891.453 43.758 891.598 43.1327 891.887 42.61C892.176 42.078 892.564 41.672 893.049 41.392C893.544 41.1027 894.09 40.958 894.687 40.958C895.163 40.958 895.564 41.0233 895.891 41.154C896.227 41.2753 896.498 41.434 896.703 41.63C896.908 41.8167 897.067 42.0173 897.179 42.232H897.375V38.2H898.481V48H897.403V46.866H897.207C897.02 47.2113 896.731 47.5193 896.339 47.79C895.947 48.0607 895.396 48.196 894.687 48.196ZM894.981 47.216C895.69 47.216 896.264 46.992 896.703 46.544C897.151 46.0867 897.375 45.452 897.375 44.64V44.514C897.375 43.702 897.151 43.072 896.703 42.624C896.264 42.1667 895.69 41.938 894.981 41.938C894.281 41.938 893.702 42.1667 893.245 42.624C892.797 43.072 892.573 43.702 892.573 44.514V44.64C892.573 45.452 892.797 46.0867 893.245 46.544C893.702 46.992 894.281 47.216 894.981 47.216ZM901.401 48.196C901.13 48.196 900.901 48.1073 900.715 47.93C900.537 47.7527 900.449 47.524 900.449 47.244C900.449 46.964 900.537 46.7353 900.715 46.558C900.901 46.3807 901.13 46.292 901.401 46.292C901.681 46.292 901.909 46.3807 902.087 46.558C902.264 46.7353 902.353 46.964 902.353 47.244C902.353 47.524 902.264 47.7527 902.087 47.93C901.909 48.1073 901.681 48.196 901.401 48.196Z" fill="white"/>
</svg>
